<svg width="17" height="16" viewBox="0 0 17 16" fill="none" xmlns="http://www.w3.org/2000/svg">
<path d="M11.8333 1.33337H5.16667C3.32572 1.33337 1.83334 2.82576 1.83334 4.66671V11.3334C1.83334 13.1743 3.32572 14.6667 5.16667 14.6667H11.8333C13.6743 14.6667 15.1667 13.1743 15.1667 11.3334V4.66671C15.1667 2.82576 13.6743 1.33337 11.8333 1.33337Z" stroke="#99A1AF" stroke-width="1.33333" stroke-linecap="round" stroke-linejoin="round"/>
<path d="M11.1667 7.58008C11.2489 8.13491 11.1542 8.70156 10.8958 9.19942C10.6375 9.69729 10.2288 10.101 9.72775 10.3532C9.22674 10.6054 8.65897 10.6931 8.10519 10.604C7.55142 10.5149 7.03984 10.2535 6.64323 9.85685C6.24661 9.46024 5.98516 8.94866 5.89605 8.39489C5.80694 7.84111 5.89471 7.27334 6.14688 6.77233C6.39906 6.27131 6.80279 5.86257 7.30066 5.60424C7.79852 5.34591 8.36517 5.25114 8.92 5.33341C9.48595 5.41734 10.0099 5.68105 10.4145 6.08562C10.819 6.49018 11.0827 7.01413 11.1667 7.58008Z" stroke="#99A1AF" stroke-width="1.33333" stroke-linecap="round" stroke-linejoin="round"/>
<path d="M12.1667 4.33337H12.1733" stroke="#99A1AF" stroke-width="1.33333" stroke-linecap="round" stroke-linejoin="round"/>
</svg>
