<svg width="17" height="16" viewBox="0 0 17 16" fill="none" xmlns="http://www.w3.org/2000/svg">
<path d="M2.16667 11.3333C1.70095 9.13551 1.70095 6.86449 2.16667 4.66667C2.22786 4.44347 2.3461 4.24005 2.50974 4.0764C2.67339 3.91276 2.87681 3.79453 3.1 3.73333C6.67564 3.14097 10.3244 3.14097 13.9 3.73333C14.1232 3.79453 14.3266 3.91276 14.4903 4.0764C14.6539 4.24005 14.7721 4.44347 14.8333 4.66667C15.2991 6.86449 15.2991 9.13551 14.8333 11.3333C14.7721 11.5565 14.6539 11.7599 14.4903 11.9236C14.3266 12.0872 14.1232 12.2055 13.9 12.2667C10.3244 12.8591 6.67563 12.8591 3.1 12.2667C2.87681 12.2055 2.67339 12.0872 2.50974 11.9236C2.3461 11.7599 2.22786 11.5565 2.16667 11.3333Z" stroke="#99A1AF" stroke-width="1.33333" stroke-linecap="round" stroke-linejoin="round"/>
<path d="M7.16667 10L10.5 8L7.16667 6V10Z" stroke="#99A1AF" stroke-width="1.33333" stroke-linecap="round" stroke-linejoin="round"/>
</svg>
