<svg width="25" height="24" viewBox="0 0 25 24" fill="none" xmlns="http://www.w3.org/2000/svg">
<path d="M11.5 20C9.74406 20.0053 8.05025 19.3505 6.75452 18.1654C5.45878 16.9803 4.65577 15.3515 4.50474 13.6021C4.3537 11.8527 4.86569 10.1104 5.93915 8.72074C7.01261 7.33112 8.56913 6.3957 10.3 6.1C16 5 17.5 4.48 19.5 2C20.5 4 21.5 6.18 21.5 10C21.5 15.5 16.72 20 11.5 20Z" stroke="white" stroke-width="2" stroke-linecap="round" stroke-linejoin="round"/>
<path d="M2.5 21C2.5 18 4.35 15.64 7.58 15C10 14.52 12.5 13 13.5 12" stroke="white" stroke-width="2" stroke-linecap="round" stroke-linejoin="round"/>
</svg>
