<svg width="65" height="64" viewBox="0 0 65 64" fill="none" xmlns="http://www.w3.org/2000/svg">
<path d="M54.1614 26.6666C54.1614 39.9813 39.3908 53.848 34.4308 58.1306C33.9687 58.4781 33.4062 58.666 32.8281 58.666C32.25 58.666 31.6875 58.4781 31.2254 58.1306C26.2654 53.848 11.4948 39.9813 11.4948 26.6666C11.4948 21.0087 13.7424 15.5825 17.7432 11.5817C21.7439 7.58093 27.1702 5.33331 32.8281 5.33331C38.4861 5.33331 43.9123 7.58093 47.9131 11.5817C51.9138 15.5825 54.1614 21.0087 54.1614 26.6666Z" stroke="#00A63E" stroke-width="5.33333" stroke-linecap="round" stroke-linejoin="round"/>
<path d="M32.8281 34.6667C37.2464 34.6667 40.8281 31.085 40.8281 26.6667C40.8281 22.2484 37.2464 18.6667 32.8281 18.6667C28.4098 18.6667 24.8281 22.2484 24.8281 26.6667C24.8281 31.085 28.4098 34.6667 32.8281 34.6667Z" stroke="#00A63E" stroke-width="5.33333" stroke-linecap="round" stroke-linejoin="round"/>
</svg>
