<svg width="89" height="88" viewBox="0 0 89 88" fill="none" xmlns="http://www.w3.org/2000/svg">
<g filter="url(#filter0_dd_1_14)">
<path d="M12.5 18C12.5 9.16344 19.6634 2 28.5 2H60.5C69.3366 2 76.5 9.16344 76.5 18V50C76.5 58.8366 69.3366 66 60.5 66H28.5C19.6634 66 12.5 58.8366 12.5 50V18Z" fill="url(#paint0_linear_1_14)" shape-rendering="crispEdges"/>
<path d="M47.1667 42V26C47.1667 25.2928 46.8857 24.6145 46.3856 24.1144C45.8855 23.6143 45.2072 23.3333 44.5 23.3333H33.8333C33.1261 23.3333 32.4478 23.6143 31.9477 24.1144C31.4476 24.6145 31.1667 25.2928 31.1667 26V40.6667C31.1667 41.0203 31.3071 41.3594 31.5572 41.6095C31.8072 41.8595 32.1464 42 32.5 42H35.1667" stroke="white" stroke-width="2.66667" stroke-linecap="round" stroke-linejoin="round"/>
<path d="M48.5 42H40.5" stroke="white" stroke-width="2.66667" stroke-linecap="round" stroke-linejoin="round"/>
<path d="M53.8333 42H56.5C56.8536 42 57.1928 41.8595 57.4428 41.6095C57.6929 41.3594 57.8333 41.0203 57.8333 40.6667V35.8C57.8328 35.4974 57.7294 35.204 57.54 34.968L52.9 29.168C52.7753 29.0118 52.6171 28.8857 52.4371 28.7989C52.2571 28.7121 52.0598 28.6669 51.86 28.6667H47.1667" stroke="white" stroke-width="2.66667" stroke-linecap="round" stroke-linejoin="round"/>
<path d="M51.1667 44.6667C52.6394 44.6667 53.8333 43.4728 53.8333 42C53.8333 40.5273 52.6394 39.3333 51.1667 39.3333C49.6939 39.3333 48.5 40.5273 48.5 42C48.5 43.4728 49.6939 44.6667 51.1667 44.6667Z" stroke="white" stroke-width="2.66667" stroke-linecap="round" stroke-linejoin="round"/>
<path d="M37.8333 44.6667C39.3061 44.6667 40.5 43.4728 40.5 42C40.5 40.5273 39.3061 39.3333 37.8333 39.3333C36.3606 39.3333 35.1667 40.5273 35.1667 42C35.1667 43.4728 36.3606 44.6667 37.8333 44.6667Z" stroke="white" stroke-width="2.66667" stroke-linecap="round" stroke-linejoin="round"/>
</g>
<defs>
<filter id="filter0_dd_1_14" x="0.5" y="0" width="88" height="88" filterUnits="userSpaceOnUse" color-interpolation-filters="sRGB">
<feFlood flood-opacity="0" result="BackgroundImageFix"/>
<feColorMatrix in="SourceAlpha" type="matrix" values="0 0 0 0 0 0 0 0 0 0 0 0 0 0 0 0 0 0 127 0" result="hardAlpha"/>
<feMorphology radius="4" operator="erode" in="SourceAlpha" result="effect1_dropShadow_1_14"/>
<feOffset dy="4"/>
<feGaussianBlur stdDeviation="3"/>
<feComposite in2="hardAlpha" operator="out"/>
<feColorMatrix type="matrix" values="0 0 0 0 0 0 0 0 0 0 0 0 0 0 0 0 0 0 0.1 0"/>
<feBlend mode="normal" in2="BackgroundImageFix" result="effect1_dropShadow_1_14"/>
<feColorMatrix in="SourceAlpha" type="matrix" values="0 0 0 0 0 0 0 0 0 0 0 0 0 0 0 0 0 0 127 0" result="hardAlpha"/>
<feMorphology radius="3" operator="erode" in="SourceAlpha" result="effect2_dropShadow_1_14"/>
<feOffset dy="10"/>
<feGaussianBlur stdDeviation="7.5"/>
<feComposite in2="hardAlpha" operator="out"/>
<feColorMatrix type="matrix" values="0 0 0 0 0 0 0 0 0 0 0 0 0 0 0 0 0 0 0.1 0"/>
<feBlend mode="normal" in2="effect1_dropShadow_1_14" result="effect2_dropShadow_1_14"/>
<feBlend mode="normal" in="SourceGraphic" in2="effect2_dropShadow_1_14" result="shape"/>
</filter>
<linearGradient id="paint0_linear_1_14" x1="12.5" y1="34" x2="76.5" y2="34" gradientUnits="userSpaceOnUse">
<stop stop-color="#51A2FF"/>
<stop offset="1" stop-color="#00D3F2"/>
</linearGradient>
</defs>
</svg>
