<svg width="17" height="16" viewBox="0 0 17 16" fill="none" xmlns="http://www.w3.org/2000/svg">
<path d="M7.06509 9.77333V10.8573C7.06258 11.0858 7.00142 11.3097 6.88748 11.5077C6.77355 11.7057 6.61065 11.8711 6.41443 11.988C5.99786 12.2965 5.65899 12.698 5.42475 13.1604C5.19051 13.6229 5.06737 14.1336 5.06509 14.652" stroke="white" stroke-width="1.33333" stroke-linecap="round" stroke-linejoin="round"/>
<path d="M9.73178 9.77333V10.8573C9.7343 11.0858 9.79546 11.3097 9.90939 11.5077C10.0233 11.7057 10.1862 11.8711 10.3824 11.988C10.799 12.2965 11.1379 12.698 11.3721 13.1604C11.6064 13.6229 11.7295 14.1336 11.7318 14.652" stroke="white" stroke-width="1.33333" stroke-linecap="round" stroke-linejoin="round"/>
<path d="M12.3984 6H13.3984C13.8405 6 14.2644 5.82441 14.5769 5.51185C14.8895 5.19929 15.0651 4.77536 15.0651 4.33333C15.0651 3.89131 14.8895 3.46738 14.5769 3.15482C14.2644 2.84226 13.8405 2.66667 13.3984 2.66667H12.3984" stroke="white" stroke-width="1.33333" stroke-linecap="round" stroke-linejoin="round"/>
<path d="M3.06509 14.6667H13.7318" stroke="white" stroke-width="1.33333" stroke-linecap="round" stroke-linejoin="round"/>
<path d="M4.39844 6C4.39844 7.06087 4.81987 8.07828 5.57001 8.82843C6.32016 9.57857 7.33757 10 8.39844 10C9.4593 10 10.4767 9.57857 11.2269 8.82843C11.977 8.07828 12.3984 7.06087 12.3984 6V2C12.3984 1.82319 12.3282 1.65362 12.2032 1.5286C12.0782 1.40357 11.9086 1.33333 11.7318 1.33333H5.0651C4.88829 1.33333 4.71872 1.40357 4.5937 1.5286C4.46868 1.65362 4.39844 1.82319 4.39844 2V6Z" stroke="white" stroke-width="1.33333" stroke-linecap="round" stroke-linejoin="round"/>
<path d="M4.39845 6H3.39845C2.95642 6 2.5325 5.82441 2.21994 5.51185C1.90738 5.19929 1.73178 4.77536 1.73178 4.33333C1.73178 3.89131 1.90738 3.46738 2.21994 3.15482C2.5325 2.84226 2.95642 2.66667 3.39845 2.66667H4.39845" stroke="white" stroke-width="1.33333" stroke-linecap="round" stroke-linejoin="round"/>
</svg>
