<svg width="30" height="30" viewBox="0 0 30 30" fill="none" xmlns="http://www.w3.org/2000/svg">
<g clip-path="url(#clip0_1_242)">
<path d="M13.0041 11.61C14.6529 11.61 15.9896 10.2765 15.9896 8.63152C15.9896 6.98653 14.6529 5.653 13.0041 5.653C11.3553 5.653 10.0186 6.98653 10.0186 8.63152C10.0186 10.2765 11.3553 11.61 13.0041 11.61Z" stroke="#0D9488" stroke-width="1.988" stroke-linecap="round"/>
</g>
<g clip-path="url(#clip1_1_242)">
<path d="M16.5984 8.83333C16.8755 8.35482 17.3319 8.00566 17.8673 7.86265C18.4027 7.71965 18.9731 7.79451 19.4531 8.07078C19.9331 8.34705 20.2834 8.80209 20.4268 9.33579C20.5703 9.8695 20.4952 10.4382 20.2181 10.9167C19.9409 11.3952 19.4845 11.7443 18.9491 11.8873C18.4137 12.0304 17.8433 11.9555 17.3633 11.6792C16.8833 11.403 16.533 10.9479 16.3896 10.4142C16.2461 9.8805 16.3212 9.31184 16.5984 8.83333Z" stroke="#0D9488" stroke-width="2.08658"/>
</g>
<g clip-path="url(#clip2_1_242)">
<path d="M6.18819 8.83333C6.46533 8.35482 6.92179 8.00566 7.45716 7.86265C7.99253 7.71965 8.56297 7.79451 9.04297 8.07078C9.52298 8.34705 9.87323 8.80209 10.0167 9.33579C10.1601 9.8695 10.085 10.4382 9.80791 10.9167C9.53078 11.3952 9.07432 11.7443 8.53894 11.8873C8.00357 12.0304 7.43313 11.9555 6.95313 11.6792C6.47313 11.403 6.12287 10.9479 5.97942 10.4142C5.83597 9.8805 5.91106 9.31184 6.18819 8.83333Z" stroke="#0D9488" stroke-width="2.08658"/>
</g>
<g clip-path="url(#clip3_1_242)">
<path d="M18.2115 18.9596L17.218 19.1465L17.3818 19.9066H18.2115V18.9596ZM16.082 15.8451L15.4689 15.0912L14.2972 15.9231L15.5468 16.6492L16.082 15.8451ZM18.3314 15.1715V16.1185C19.995 16.1185 20.7663 17.2368 21.1465 18.238L22.1016 17.9214L23.0567 17.6049C22.5854 16.3633 21.3194 14.2246 18.3314 14.2246V15.1715ZM22.1016 17.9214L21.1465 18.238C21.1393 18.2192 21.1327 18.1835 21.1411 18.1404C21.1491 18.0996 21.1672 18.0686 21.1842 18.0488C21.2167 18.011 21.2436 18.0126 21.237 18.0126V18.9596V19.9066C22.3988 19.9066 23.5417 18.8826 23.0567 17.6049L22.1016 17.9214ZM21.237 18.9596V18.0126H18.2115V18.9596V19.9066H21.237V18.9596ZM18.2115 18.9596L19.205 18.7726C18.984 17.7474 18.3688 16.0589 16.6173 15.041L16.082 15.8451L15.5468 16.6492C16.6002 17.2615 17.0415 18.3278 17.218 19.1465L18.2115 18.9596ZM16.082 15.8451L16.6952 16.5991C17.0852 16.3222 17.6038 16.1185 18.3314 16.1185V15.1715V14.2246C17.1531 14.2246 16.2053 14.5683 15.4689 15.0912L16.082 15.8451Z" fill="#0D9488"/>
</g>
<g clip-path="url(#clip4_1_242)">
<path d="M10.3126 15.8451L10.8478 16.6493L12.0973 15.9232L10.9258 15.0912L10.3126 15.8451ZM8.18253 18.9596V19.9066H9.01225L9.17604 19.1465L8.18253 18.9596ZM8.06257 15.1715V16.1185C8.79056 16.1185 9.30951 16.3222 9.69929 16.599L10.3126 15.8451L10.9258 15.0912C10.1892 14.568 9.24086 14.2246 8.06257 14.2246V15.1715ZM10.3126 15.8451L9.77743 15.041C8.02566 16.0588 7.41002 17.7471 7.18902 18.7726L8.18253 18.9596L9.17604 19.1465C9.35244 18.3279 9.79403 17.2615 10.8478 16.6493L10.3126 15.8451ZM8.18253 18.9596V18.0126H5.15701V18.9596V19.9066H8.18253V18.9596ZM5.15701 18.9596V18.0126C5.15042 18.0126 5.17734 18.011 5.20981 18.0488C5.22685 18.0686 5.24489 18.0996 5.25285 18.1404C5.26126 18.1836 5.25472 18.2191 5.24756 18.238L4.29241 17.9214L3.33727 17.6048C2.85225 18.8825 3.9952 19.9066 5.15701 19.9066V18.9596ZM4.29241 17.9214L5.24756 18.238C5.62766 17.2368 6.39903 16.1185 8.06257 16.1185V15.1715V14.2246C5.07469 14.2246 3.80865 16.3632 3.33727 17.6048L4.29241 17.9214Z" fill="#0D9488"/>
</g>
<g clip-path="url(#clip5_1_242)">
<path d="M13.1054 15.2526C16.5933 15.2526 17.5897 17.8409 17.8744 19.3198C17.9801 19.8692 17.5511 20.3253 17.0117 20.3253H9.1992C8.65986 20.3253 8.23073 19.8692 8.33649 19.3198C8.62117 17.8409 9.61762 15.2526 13.1054 15.2526Z" stroke="#0D9488" stroke-width="1.99074" stroke-linecap="round"/>
</g>
<defs>
<clipPath id="clip0_1_242">
<rect width="8.35938" height="8.33985" fill="white" transform="translate(9.02344 4.66016)"/>
</clipPath>
<clipPath id="clip1_1_242">
<rect width="6.26953" height="6.25001" fill="white" transform="translate(15.2734 6.75)"/>
</clipPath>
<clipPath id="clip2_1_242">
<rect width="6.26953" height="6.25001" fill="white" transform="translate(4.86328 6.75)"/>
</clipPath>
<clipPath id="clip3_1_242">
<rect width="9.12109" height="6.25" fill="white" transform="translate(14.2578 14.0352)"/>
</clipPath>
<clipPath id="clip4_1_242">
<rect width="9.12109" height="6.25" fill="white" transform="translate(3.02734 14.0352)"/>
</clipPath>
<clipPath id="clip5_1_242">
<rect width="12.3047" height="7.30469" fill="white" transform="translate(7.05078 14.0352)"/>
</clipPath>
</defs>
</svg>
