<svg width="17" height="16" viewBox="0 0 17 16" fill="none" xmlns="http://www.w3.org/2000/svg">
<path d="M10.5547 14V8.66667C10.5547 8.48986 10.4844 8.32029 10.3594 8.19526C10.2344 8.07024 10.0648 8 9.88802 8H7.22135C7.04454 8 6.87497 8.07024 6.74995 8.19526C6.62493 8.32029 6.55469 8.48986 6.55469 8.66667V14" stroke="white" stroke-width="1.33333" stroke-linecap="round" stroke-linejoin="round"/>
<path d="M2.55469 6.66667C2.55464 6.47271 2.59691 6.28108 2.67855 6.10514C2.76018 5.92921 2.87922 5.7732 3.02735 5.648L7.69402 1.648C7.93468 1.44461 8.23959 1.33301 8.55469 1.33301C8.86978 1.33301 9.1747 1.44461 9.41535 1.648L14.082 5.648C14.2302 5.7732 14.3492 5.92921 14.4308 6.10514C14.5125 6.28108 14.5547 6.47271 14.5547 6.66667V12.6667C14.5547 13.0203 14.4142 13.3594 14.1642 13.6095C13.9141 13.8595 13.575 14 13.2214 14H3.88802C3.5344 14 3.19526 13.8595 2.94521 13.6095C2.69516 13.3594 2.55469 13.0203 2.55469 12.6667V6.66667Z" stroke="white" stroke-width="1.33333" stroke-linecap="round" stroke-linejoin="round"/>
</svg>
