<svg width="17" height="16" viewBox="0 0 17 16" fill="none" xmlns="http://www.w3.org/2000/svg">
<path d="M13.4427 6.66667C13.4427 9.99533 9.75006 13.462 8.51006 14.5327C8.39454 14.6195 8.25393 14.6665 8.1094 14.6665C7.96486 14.6665 7.82425 14.6195 7.70873 14.5327C6.46873 13.462 2.77606 9.99533 2.77606 6.66667C2.77606 5.25218 3.33797 3.89563 4.33816 2.89543C5.33835 1.89524 6.69491 1.33333 8.1094 1.33333C9.52388 1.33333 10.8804 1.89524 11.8806 2.89543C12.8808 3.89563 13.4427 5.25218 13.4427 6.66667Z" stroke="#009689" stroke-width="1.33333" stroke-linecap="round" stroke-linejoin="round"/>
<path d="M8.10938 8.66667C9.21394 8.66667 10.1094 7.77124 10.1094 6.66667C10.1094 5.5621 9.21394 4.66667 8.10938 4.66667C7.00481 4.66667 6.10938 5.5621 6.10938 6.66667C6.10938 7.77124 7.00481 8.66667 8.10938 8.66667Z" stroke="#009689" stroke-width="1.33333" stroke-linecap="round" stroke-linejoin="round"/>
</svg>
