<svg width="17" height="16" viewBox="0 0 17 16" fill="none" xmlns="http://www.w3.org/2000/svg">
<path d="M10.5781 14V10.6667C10.5781 10.4899 10.5079 10.3203 10.3829 10.1953C10.2578 10.0702 10.0883 10 9.91146 10H7.24479C7.06798 10 6.89841 10.0702 6.77339 10.1953C6.64836 10.3203 6.57812 10.4899 6.57812 10.6667V14" stroke="#009689" stroke-width="1.33333" stroke-linecap="round" stroke-linejoin="round"/>
<path d="M12.4274 6.87333C12.2885 6.74029 12.1035 6.66603 11.9111 6.66603C11.7187 6.66603 11.5338 6.74029 11.3948 6.87333C11.0848 7.16901 10.6728 7.33397 10.2444 7.33397C9.81605 7.33397 9.40411 7.16901 9.09411 6.87333C8.95517 6.74049 8.77034 6.66635 8.57811 6.66635C8.38588 6.66635 8.20106 6.74049 8.06211 6.87333C7.75209 7.16921 7.34 7.33429 6.91145 7.33429C6.48289 7.33429 6.07081 7.16921 5.76078 6.87333C5.6218 6.74029 5.43684 6.66603 5.24445 6.66603C5.05206 6.66603 4.86709 6.74029 4.72811 6.87333C4.42868 7.15908 4.03363 7.32318 3.61986 7.3337C3.2061 7.34422 2.80322 7.20041 2.48965 6.93025C2.17608 6.6601 1.97424 6.28293 1.92344 5.87216C1.87263 5.46139 1.97648 5.04642 2.21478 4.708L4.14078 1.91867C4.26298 1.73834 4.42751 1.5907 4.61997 1.48866C4.81242 1.38663 5.02695 1.33329 5.24478 1.33333H11.9114C12.1286 1.33325 12.3426 1.38623 12.5346 1.48766C12.7267 1.58909 12.8911 1.7359 13.0134 1.91533L14.9434 4.71C15.1818 5.04868 15.2855 5.46398 15.2344 5.87496C15.1833 6.28594 14.981 6.66317 14.6669 6.93313C14.3528 7.20309 13.9495 7.34645 13.5355 7.33527C13.1215 7.3241 12.7265 7.15918 12.4274 6.87267" stroke="#009689" stroke-width="1.33333" stroke-linecap="round" stroke-linejoin="round"/>
<path d="M3.24481 7.3V12.6667C3.24481 13.0203 3.38529 13.3594 3.63534 13.6095C3.88538 13.8595 4.22452 14 4.57815 14H12.5781C12.9318 14 13.2709 13.8595 13.521 13.6095C13.771 13.3594 13.9115 13.0203 13.9115 12.6667V7.3" stroke="#009689" stroke-width="1.33333" stroke-linecap="round" stroke-linejoin="round"/>
</svg>
